<svg width="29" height="29" viewBox="0 0 29 29" fill="none" xmlns="http://www.w3.org/2000/svg">
<g clip-path="url(#clip0_268_236)">
<path d="M28.1449 8.11287C27.9833 7.53647 27.6686 7.01463 27.2341 6.60281C26.7874 6.17834 26.2398 5.8747 25.6432 5.72056C23.4102 5.13199 14.464 5.13199 14.464 5.13199C10.7344 5.08956 7.00578 5.27619 3.29909 5.69083C2.70243 5.85636 2.15592 6.16678 1.70818 6.59449C1.26825 7.01778 0.949588 7.53976 0.783125 8.11168C0.383248 10.2659 0.188961 12.4532 0.202882 14.6442C0.188614 16.8332 0.382424 19.0198 0.783125 21.1766C0.946021 21.7462 1.26349 22.2658 1.70462 22.6855C2.14574 23.1052 2.69507 23.4084 3.29909 23.569C5.5618 24.1563 14.464 24.1563 14.464 24.1563C18.1983 24.1988 21.9317 24.0122 25.6432 23.5975C26.2398 23.4434 26.7874 23.1397 27.2341 22.7152C27.674 22.2955 27.9867 21.7735 28.1437 21.2052C28.554 19.0518 28.7535 16.8636 28.7394 14.6715C28.7703 12.4702 28.571 10.2716 28.1449 8.11168V8.11287ZM11.6199 18.7154V10.5741L19.0631 14.6454L11.6199 18.7154Z" fill="white"/>
</g>
<defs>
<clipPath id="clip0_268_236">
<rect width="28.5365" height="28.5365" fill="white" transform="translate(0.202881 0.375854)"/>
</clipPath>
</defs>
</svg>
