<svg width="26" height="26" viewBox="0 0 26 26" fill="none" xmlns="http://www.w3.org/2000/svg">
<path fill-rule="evenodd" clip-rule="evenodd" d="M8.07315 1.52649C9.31844 1.46916 9.71548 1.45642 12.8876 1.45642C16.0598 1.45642 16.4568 1.47022 17.7011 1.52649C18.9453 1.58275 19.7946 1.78128 20.5377 2.06898C21.3159 2.36305 22.0219 2.82274 22.6058 3.41725C23.2003 4.00008 23.6589 4.705 23.9519 5.48424C24.2407 6.22738 24.4382 7.07668 24.4955 8.31879C24.5528 9.5662 24.5655 9.96325 24.5655 13.1343C24.5655 16.3065 24.5517 16.7035 24.4955 17.9488C24.4392 19.1909 24.2407 20.0402 23.9519 20.7834C23.6589 21.5627 23.1995 22.2688 22.6058 22.8525C22.0219 23.447 21.3159 23.9056 20.5377 24.1986C19.7946 24.4874 18.9453 24.6849 17.7032 24.7422C16.4568 24.7995 16.0598 24.8123 12.8876 24.8123C9.71548 24.8123 9.31844 24.7984 8.07315 24.7422C6.83104 24.6859 5.98174 24.4874 5.2386 24.1986C4.45928 23.9056 3.75319 23.4462 3.16948 22.8525C2.57537 22.2693 2.11562 21.5635 1.82228 20.7844C1.53458 20.0413 1.33711 19.192 1.27978 17.9499C1.22246 16.7025 1.20972 16.3054 1.20972 13.1343C1.20972 9.96219 1.22352 9.56514 1.27978 8.32091C1.33605 7.07668 1.53458 6.22738 1.82228 5.48424C2.11605 4.70509 2.57616 3.99935 3.17054 3.41619C3.75342 2.82221 4.4588 2.36246 5.23754 2.06898C5.98068 1.78128 6.82998 1.58382 8.07208 1.52649H8.07315ZM17.6066 3.62851C16.3751 3.57225 16.0056 3.56057 12.8876 3.56057C9.76963 3.56057 9.40018 3.57225 8.16869 3.62851C7.02956 3.68053 6.4117 3.87056 5.99978 4.03087C5.45517 4.2432 5.06555 4.4948 4.65683 4.90353C4.26938 5.28046 3.9712 5.73933 3.78417 6.24649C3.62386 6.6584 3.43383 7.27627 3.38181 8.4154C3.32554 9.64688 3.31386 10.0163 3.31386 13.1343C3.31386 16.2523 3.32554 16.6218 3.38181 17.8533C3.43383 18.9924 3.62386 19.6103 3.78417 20.0222C3.97101 20.5286 4.26933 20.9883 4.65683 21.3651C5.0337 21.7526 5.49339 22.051 5.99978 22.2378C6.4117 22.3981 7.02956 22.5881 8.16869 22.6402C9.40018 22.6964 9.76857 22.7081 12.8876 22.7081C16.0067 22.7081 16.3751 22.6964 17.6066 22.6402C18.7457 22.5881 19.3636 22.3981 19.7755 22.2378C20.3201 22.0255 20.7097 21.7739 21.1184 21.3651C21.5059 20.9883 21.8043 20.5286 21.9911 20.0222C22.1514 19.6103 22.3414 18.9924 22.3935 17.8533C22.4497 16.6218 22.4614 16.2523 22.4614 13.1343C22.4614 10.0163 22.4497 9.64688 22.3935 8.4154C22.3414 7.27627 22.1514 6.6584 21.9911 6.24649C21.7788 5.70187 21.5272 5.31226 21.1184 4.90353C20.7415 4.51611 20.2826 4.21794 19.7755 4.03087C19.3636 3.87056 18.7457 3.68053 17.6066 3.62851ZM11.396 16.7343C12.2291 17.0811 13.1566 17.1279 14.0203 16.8667C14.884 16.6056 15.6302 16.0527 16.1316 15.3024C16.6329 14.5522 16.8582 13.6512 16.769 12.7533C16.6798 11.8554 16.2817 11.0164 15.6426 10.3794C15.2351 9.97225 14.7425 9.66049 14.2002 9.46656C13.6578 9.27264 13.0792 9.20138 12.506 9.25792C11.9328 9.31446 11.3792 9.49738 10.8852 9.79353C10.3912 10.0897 9.96894 10.4917 9.64892 10.9706C9.32891 11.4495 9.11905 11.9934 9.03447 12.5631C8.94988 13.1329 8.99268 13.7143 9.15976 14.2655C9.32685 14.8167 9.61408 15.3241 10.0008 15.751C10.3875 16.1778 10.864 16.5137 11.396 16.7343ZM8.64324 8.88994C9.20062 8.33256 9.86233 7.89042 10.5906 7.58877C11.3188 7.28712 12.0994 7.13186 12.8876 7.13186C13.6759 7.13186 14.4564 7.28712 15.1847 7.58877C15.9129 7.89042 16.5746 8.33256 17.132 8.88994C17.6894 9.44733 18.1315 10.109 18.4332 10.8373C18.7348 11.5655 18.8901 12.3461 18.8901 13.1343C18.8901 13.9226 18.7348 14.7031 18.4332 15.4314C18.1315 16.1596 17.6894 16.8213 17.132 17.3787C16.0063 18.5044 14.4796 19.1368 12.8876 19.1368C11.2957 19.1368 9.76892 18.5044 8.64324 17.3787C7.51756 16.253 6.88516 14.7263 6.88516 13.1343C6.88516 11.5424 7.51756 10.0156 8.64324 8.88994ZM20.2214 8.02578C20.3595 7.89548 20.4701 7.7388 20.5465 7.565C20.623 7.39121 20.6639 7.20383 20.6666 7.01397C20.6694 6.82411 20.634 6.63563 20.5627 6.45967C20.4913 6.28372 20.3853 6.12388 20.251 5.98962C20.1168 5.85535 19.9569 5.74939 19.781 5.67801C19.605 5.60662 19.4165 5.57127 19.2267 5.57404C19.0368 5.5768 18.8495 5.61764 18.6757 5.69412C18.5019 5.7706 18.3452 5.88118 18.2149 6.0193C17.9615 6.28792 17.8228 6.64473 17.8281 7.01397C17.8335 7.38322 17.9826 7.73583 18.2437 7.99695C18.5048 8.25807 18.8574 8.40715 19.2267 8.41253C19.5959 8.41791 19.9527 8.27918 20.2214 8.02578Z" fill="white"/>
</svg>
