<svg width="31" height="31" viewBox="0 0 31 31" fill="none" xmlns="http://www.w3.org/2000/svg">
<path d="M28.0235 7.94939C27.1099 8.34352 26.1156 8.62717 25.0914 8.73765C26.1547 8.10595 26.951 7.10798 27.3308 5.93097C26.333 6.52452 25.24 6.94073 24.1001 7.16113C23.6237 6.65183 23.0476 6.24609 22.4075 5.96921C21.7674 5.69233 21.0772 5.55023 20.3798 5.55177C17.5582 5.55177 15.289 7.83891 15.289 10.6456C15.289 11.0397 15.3368 11.4339 15.4144 11.8131C11.1894 11.5921 7.42133 9.57368 4.91622 6.48335C4.45976 7.26299 4.22056 8.15071 4.22351 9.05415C4.22351 10.8218 5.12224 12.3804 6.49273 13.297C5.68508 13.2652 4.89634 13.0432 4.19066 12.6491V12.7118C4.19066 15.187 5.94036 17.2383 8.27229 17.7101C7.83444 17.8238 7.38402 17.882 6.93165 17.8832C6.60022 17.8832 6.28671 17.8504 5.97021 17.8056C6.61515 19.824 8.49324 21.2901 10.7296 21.3378C8.97993 22.7083 6.78833 23.5145 4.40863 23.5145C3.98165 23.5145 3.58752 23.4996 3.17847 23.4518C5.43575 24.8999 8.11404 25.736 10.9983 25.736C20.3619 25.736 25.4856 17.9788 25.4856 11.2457C25.4856 11.0248 25.4856 10.8038 25.4706 10.5829C26.4619 9.85733 27.3308 8.9586 28.0235 7.94939Z" fill="white"/>
</svg>
