<svg width="50" height="50" viewBox="0 0 50 50" fill="none" xmlns="http://www.w3.org/2000/svg">
<mask id="mask0_268_132" style="mask-type:alpha" maskUnits="userSpaceOnUse" x="0" y="0" width="50" height="50">
<rect width="50" height="50" fill="#D9D9D9"/>
</mask>
<g mask="url(#mask0_268_132)">
<path d="M25.0521 41.7708C20.5035 41.7708 16.5885 40.1301 13.3073 36.8489C10.026 33.5676 8.38542 29.6527 8.38542 25.1041V22.7604L4.21875 26.927L2.1875 24.8958L9.94792 17.1354L17.7083 24.8958L15.6771 26.927L11.5104 22.7604V25.1041C11.5104 28.8194 12.8385 32.0051 15.4948 34.6614C18.151 37.3176 21.3368 38.6458 25.0521 38.6458C26.059 38.6458 27.0139 38.559 27.9167 38.3854C28.8194 38.2117 29.6701 37.9513 30.4687 37.6041L32.7083 39.8437C31.4583 40.5381 30.1997 41.0329 28.9323 41.3281C27.6649 41.6232 26.3715 41.7708 25.0521 41.7708ZM40.1042 32.9687L32.3437 25.2083L34.4271 23.1249L38.5417 27.2395V25.1041C38.5417 21.3888 37.2135 18.2031 34.5573 15.5468C31.901 12.8906 28.7153 11.5624 25 11.5624C23.9931 11.5624 23.0382 11.6579 22.1354 11.8489C21.2326 12.0399 20.3819 12.2742 19.5833 12.552L17.3437 10.3124C18.5937 9.61799 19.8524 9.13188 21.1198 8.85411C22.3872 8.57633 23.6806 8.43744 25 8.43744C29.5486 8.43744 33.4635 10.0781 36.7448 13.3593C40.026 16.6406 41.6667 20.5555 41.6667 25.1041V27.3437L45.8333 23.177L47.8646 25.2083L40.1042 32.9687Z" fill="url(#paint0_linear_268_132)"/>
</g>
<defs>
<linearGradient id="paint0_linear_268_132" x1="47.561" y1="8.53658" x2="2.43903" y2="42.0732" gradientUnits="userSpaceOnUse">
<stop stop-color="#FFB800"/>
<stop offset="1" stop-color="#DD824F"/>
</linearGradient>
</defs>
</svg>
