<svg width="63" height="63" viewBox="0 0 63 63" fill="none" xmlns="http://www.w3.org/2000/svg">
<mask id="mask0_268_15" style="mask-type:alpha" maskUnits="userSpaceOnUse" x="0" y="0" width="63" height="63">
<rect width="62.7594" height="62.7594" fill="#D9D9D9"/>
</mask>
<g mask="url(#mask0_268_15)">
<path d="M29.8108 49.6846L41.1859 27.4573L33.341 27.4573V13.0749L21.5736 35.3022H29.8108L29.8108 49.6846ZM31.3797 57.5295C27.7624 57.5295 24.3629 56.8427 21.1813 55.4689C17.9998 54.0969 15.2323 52.2342 12.8788 49.8807C10.5253 47.5272 8.66257 44.7597 7.29058 41.5782C5.91685 38.3966 5.22998 34.9971 5.22998 31.3797C5.22998 27.7624 5.91685 24.3629 7.29058 21.1813C8.66257 17.9998 10.5253 15.2323 12.8788 12.8788C15.2323 10.5253 17.9998 8.6617 21.1813 7.28797C24.3629 5.91598 27.7624 5.22998 31.3797 5.22998C34.9971 5.22998 38.3966 5.91598 41.5782 7.28797C44.7597 8.6617 47.5272 10.5253 49.8807 12.8788C52.2342 15.2323 54.0969 17.9998 55.4689 21.1813C56.8427 24.3629 57.5295 27.7624 57.5295 31.3797C57.5295 34.9971 56.8427 38.3966 55.4689 41.5782C54.0969 44.7597 52.2342 47.5272 49.8807 49.8807C47.5272 52.2342 44.7597 54.0969 41.5782 55.4689C38.3966 56.8427 34.9971 57.5295 31.3797 57.5295ZM31.3797 52.2996C37.2199 52.2996 42.1665 50.273 46.2197 46.2197C50.273 42.1665 52.2996 37.2199 52.2996 31.3797C52.2996 25.5396 50.273 20.593 46.2197 16.5398C42.1665 12.4865 37.2199 10.4599 31.3797 10.4599C25.5396 10.4599 20.593 12.4865 16.5398 16.5398C12.4865 20.593 10.4599 25.5396 10.4599 31.3797C10.4599 37.2199 12.4865 42.1665 16.5398 46.2197C20.593 50.273 25.5396 52.2996 31.3797 52.2996Z" fill="url(#paint0_linear_268_15)"/>
</g>
<defs>
<linearGradient id="paint0_linear_268_15" x1="58" y1="5" x2="5.00003" y2="58" gradientUnits="userSpaceOnUse">
<stop stop-color="#FFB800"/>
<stop offset="1" stop-color="#DD824F"/>
</linearGradient>
</defs>
</svg>
