<svg width="26" height="29" viewBox="0 0 26 29" fill="none" xmlns="http://www.w3.org/2000/svg">
<g filter="url(#filter0_d_268_278)">
<mask id="mask0_268_278" style="mask-type:alpha" maskUnits="userSpaceOnUse" x="1" y="0" width="24" height="24">
<rect x="1" width="24" height="24" fill="#D9D9D9"/>
</mask>
<g mask="url(#mask0_268_278)">
<path d="M20 12C20 10.05 19.3207 8.39567 17.962 7.037C16.604 5.679 14.95 5 13 5V3C14.25 3 15.421 3.23733 16.513 3.712C17.6043 4.18733 18.5543 4.829 19.363 5.637C20.171 6.44567 20.8127 7.39567 21.288 8.487C21.7627 9.579 22 10.75 22 12H20ZM16 12C16 11.1667 15.7083 10.4583 15.125 9.875C14.5417 9.29167 13.8333 9 13 9V7C14.3833 7 15.5627 7.48733 16.538 8.462C17.5127 9.43733 18 10.6167 18 12H16ZM20.95 21C18.8 21 16.7043 20.5207 14.663 19.562C12.621 18.604 10.8127 17.3373 9.238 15.762C7.66267 14.1873 6.396 12.379 5.438 10.337C4.47933 8.29567 4 6.2 4 4.05C4 3.75 4.1 3.5 4.3 3.3C4.5 3.1 4.75 3 5.05 3H9.1C9.33333 3 9.54167 3.075 9.725 3.225C9.90833 3.375 10.0167 3.56667 10.05 3.8L10.7 7.3C10.7333 7.53333 10.7293 7.74567 10.688 7.937C10.646 8.129 10.55 8.3 10.4 8.45L7.975 10.9C8.675 12.1 9.55433 13.225 10.613 14.275C11.671 15.325 12.8333 16.2333 14.1 17L16.45 14.65C16.6 14.5 16.796 14.3873 17.038 14.312C17.2793 14.2373 17.5167 14.2167 17.75 14.25L21.2 14.95C21.4333 15 21.625 15.1123 21.775 15.287C21.925 15.4623 22 15.6667 22 15.9V19.95C22 20.25 21.9 20.5 21.7 20.7C21.5 20.9 21.25 21 20.95 21ZM7.025 9L8.675 7.35L8.25 5H6.025C6.10833 5.68333 6.225 6.35833 6.375 7.025C6.525 7.69167 6.74167 8.35 7.025 9ZM15.975 17.95C16.625 18.2333 17.2877 18.4583 17.963 18.625C18.6377 18.7917 19.3167 18.9 20 18.95V16.75L17.65 16.275L15.975 17.95Z" fill="#1E1E1E"/>
</g>
</g>
<defs>
<filter id="filter0_d_268_278" x="0" y="3" width="26" height="26" filterUnits="userSpaceOnUse" color-interpolation-filters="sRGB">
<feFlood flood-opacity="0" result="BackgroundImageFix"/>
<feColorMatrix in="SourceAlpha" type="matrix" values="0 0 0 0 0 0 0 0 0 0 0 0 0 0 0 0 0 0 127 0" result="hardAlpha"/>
<feOffset dy="4"/>
<feGaussianBlur stdDeviation="2"/>
<feComposite in2="hardAlpha" operator="out"/>
<feColorMatrix type="matrix" values="0 0 0 0 0 0 0 0 0 0 0 0 0 0 0 0 0 0 0.25 0"/>
<feBlend mode="normal" in2="BackgroundImageFix" result="effect1_dropShadow_268_278"/>
<feBlend mode="normal" in="SourceGraphic" in2="effect1_dropShadow_268_278" result="shape"/>
</filter>
</defs>
</svg>
