<svg width="43" height="42" viewBox="0 0 43 42" fill="none" xmlns="http://www.w3.org/2000/svg">
<path d="M6.73958 17.3021L12.2604 19.6458C12.8854 18.3958 13.5538 17.1632 14.2656 15.9479C14.9774 14.7326 15.7326 13.5694 16.5312 12.4583L12.4167 11.625L6.73958 17.3021ZM14.7604 21.5208L21.6875 28.4479C23.6667 27.5451 25.5243 26.5208 27.2604 25.375C28.9965 24.2291 30.4028 23.118 31.4792 22.0416C34.2917 19.2291 36.3576 16.3472 37.6771 13.3958C38.9965 10.4444 39.7083 7.11109 39.8125 3.39581C36.0972 3.49998 32.7639 4.21178 29.8125 5.53123C26.8611 6.85067 23.9792 8.91665 21.1667 11.7291C20.0903 12.8055 18.9792 14.2118 17.8333 15.9479C16.6875 17.684 15.6632 19.5416 14.7604 21.5208ZM26.6875 16.5208C25.9931 15.8264 25.6458 14.967 25.6458 13.9427C25.6458 12.9184 25.9931 12.059 26.6875 11.3646C27.3819 10.6701 28.2413 10.3229 29.2656 10.3229C30.2899 10.3229 31.1493 10.6701 31.8438 11.3646C32.5382 12.059 32.8854 12.9184 32.8854 13.9427C32.8854 14.967 32.5382 15.8264 31.8438 16.5208C31.1493 17.2153 30.2899 17.5625 29.2656 17.5625C28.2413 17.5625 27.3819 17.2153 26.6875 16.5208ZM25.9062 36.4687L31.5833 30.7916L30.75 26.6771C29.6389 27.4757 28.4757 28.2309 27.2604 28.9427C26.0451 29.6545 24.8125 30.3229 23.5625 30.9479L25.9062 36.4687ZM42.8854 0.322896C43.1979 5.04512 42.6076 9.35067 41.1146 13.2396C39.6215 17.1285 37.1562 20.7916 33.7188 24.2291L33.5104 24.4375L34.6562 30.1666C34.7604 30.6875 34.7344 31.191 34.5781 31.6771C34.4219 32.1632 34.1528 32.5972 33.7708 32.9791L24.8646 41.9375L20.4375 31.625L11.5833 22.7708L1.27083 18.3437L10.2292 9.43748C10.6111 9.05553 11.0451 8.78644 11.5312 8.63019C12.0174 8.47394 12.5208 8.4479 13.0417 8.55206L18.7708 9.6979C18.8056 9.66317 18.8403 9.63713 18.875 9.61977C18.9097 9.60241 18.9444 9.57637 18.9792 9.54165C22.4167 6.10415 26.0799 3.63019 29.9687 2.11977C33.8576 0.609354 38.1632 0.0103956 42.8854 0.322896ZM4.76042 29.0729C5.97569 27.8576 7.46007 27.2413 9.21354 27.2239C10.967 27.2066 12.4514 27.8055 13.6667 29.0208C14.8819 30.2361 15.4809 31.7205 15.4635 33.4739C15.4462 35.2274 14.8299 36.7118 13.6146 37.9271C12.7118 38.8298 11.3142 39.5764 9.42188 40.1666C7.52951 40.7569 4.69097 41.3125 0.90625 41.8333C1.42708 38.0486 1.97396 35.2014 2.54687 33.2916C3.11979 31.3819 3.85764 29.9757 4.76042 29.0729ZM6.94792 31.3125C6.46181 31.8333 6.02778 32.6493 5.64583 33.7604C5.26389 34.8715 4.93403 36.2951 4.65625 38.0312C6.39236 37.7534 7.81597 37.4236 8.92708 37.0416C10.0382 36.6597 10.8542 36.2257 11.375 35.7396C12.0347 35.1493 12.3733 34.4114 12.3906 33.526C12.408 32.6406 12.1042 31.868 11.4792 31.2083C10.8194 30.5833 10.0469 30.2795 9.16146 30.2969C8.27604 30.3142 7.53819 30.6528 6.94792 31.3125Z" fill="url(#paint0_linear_268_104)"/>
<defs>
<linearGradient id="paint0_linear_268_104" x1="42.7317" y1="-2.17073" x2="0.658539" y2="46.3049" gradientUnits="userSpaceOnUse">
<stop stop-color="#FFB800"/>
<stop offset="1" stop-color="#DD824F"/>
</linearGradient>
</defs>
</svg>
