<svg width="63" height="63" viewBox="0 0 63 63" fill="none" xmlns="http://www.w3.org/2000/svg">
<mask id="mask0_268_36" style="mask-type:alpha" maskUnits="userSpaceOnUse" x="0" y="0" width="63" height="63">
<rect width="62.76" height="62.76" fill="#D9D9D9"/>
</mask>
<g mask="url(#mask0_268_36)">
<path d="M57.53 26.15L55.8956 22.5544L52.3 20.92L55.8956 19.2856L57.53 15.69L59.1644 19.2856L62.76 20.92L59.1644 22.5544L57.53 26.15ZM49.685 15.69L47.2007 10.3293L41.84 7.845L47.2007 5.36075L49.685 0L52.1692 5.36075L57.53 7.845L52.1692 10.3293L49.685 15.69ZM23.535 57.53C22.0967 57.53 20.8659 57.0183 19.8426 55.995C18.8175 54.9699 18.305 53.7383 18.305 52.3H28.765C28.765 53.7383 28.2533 54.9699 27.23 55.995C26.2049 57.0183 24.9732 57.53 23.535 57.53ZM13.075 49.685V44.455H33.995V49.685H13.075ZM13.7287 41.84C10.7215 40.0531 8.33573 37.656 6.57148 34.6488C4.80548 31.6415 3.92249 28.3727 3.92249 24.8425C3.92249 19.3946 5.82969 14.7643 9.64411 10.9516C13.4568 7.13721 18.0871 5.23 23.535 5.23C28.9829 5.23 33.6132 7.13721 37.4259 10.9516C41.2403 14.7643 43.1475 19.3946 43.1475 24.8425C43.1475 28.3727 42.2654 31.6415 40.5011 34.6488C38.7351 37.656 36.3485 40.0531 33.3412 41.84H13.7287ZM15.2977 36.61H31.7722C33.7335 35.2153 35.2476 33.4938 36.3145 31.4454C37.3832 29.397 37.9175 27.196 37.9175 24.8425C37.9175 20.8328 36.5228 17.4333 33.7335 14.644C30.9442 11.8547 27.5447 10.46 23.535 10.46C19.5253 10.46 16.1258 11.8547 13.3365 14.644C10.5472 17.4333 9.15249 20.8328 9.15249 24.8425C9.15249 27.196 9.68682 29.397 10.7555 31.4454C11.8224 33.4938 13.3365 35.2153 15.2977 36.61Z" fill="url(#paint0_linear_268_36)"/>
</g>
<defs>
<linearGradient id="paint0_linear_268_36" x1="63" y1="-3.50483e-06" x2="4" y2="58" gradientUnits="userSpaceOnUse">
<stop stop-color="#FFB800"/>
<stop offset="1" stop-color="#DD824F"/>
</linearGradient>
</defs>
</svg>
